<?xml version="1.0" encoding="UTF-8"?> <svg xmlns="http://www.w3.org/2000/svg" width="186" height="180" viewBox="0 0 186 180" fill="none"> <path d="M93.7266 118.301C93.7266 119.074 94.3441 119.707 95.0889 119.707H128.692C129.437 119.707 130.055 119.074 130.055 118.301V109.863C130.055 109.09 129.437 108.457 128.692 108.457H95.0889C94.3441 108.457 93.7266 109.09 93.7266 109.863V118.301ZM58.3248 119.373L93.1998 91.0723C93.89 90.5098 93.89 89.4727 93.1998 88.9102L58.3248 60.627C58.1143 60.4537 57.8568 60.3425 57.5829 60.3067C57.309 60.2708 57.0303 60.3118 56.7798 60.4247C56.5292 60.5376 56.3174 60.7177 56.1695 60.9436C56.0216 61.1695 55.9438 61.4318 55.9453 61.6992V72.7207C55.9453 73.1426 56.127 73.5293 56.4721 73.793L76.4162 90L56.4721 106.207C56.3097 106.339 56.1786 106.502 56.0877 106.687C55.9968 106.873 55.9482 107.074 55.9453 107.279V118.301C55.9453 119.496 57.3803 120.146 58.3248 119.373ZM159.844 19.6875H26.1562C22.9412 19.6875 20.3438 22.2012 20.3438 25.3125V154.688C20.3438 157.799 22.9412 160.312 26.1562 160.312H159.844C163.059 160.312 165.656 157.799 165.656 154.688V25.3125C165.656 22.2012 163.059 19.6875 159.844 19.6875ZM152.578 147.656H33.4219V32.3438H152.578V147.656Z" fill="white"></path> </svg> 