<?xml version="1.0" encoding="UTF-8"?> <svg xmlns="http://www.w3.org/2000/svg" width="178" height="178" viewBox="0 0 178 178" fill="none"> <path d="M164.268 71.6172H119.768C119.003 71.6172 118.377 72.243 118.377 73.0078V81.3516C118.377 82.1164 119.003 82.7422 119.768 82.7422H164.268C165.032 82.7422 165.658 82.1164 165.658 81.3516V73.0078C165.658 72.243 165.032 71.6172 164.268 71.6172ZM140.975 95.2578H119.768C119.003 95.2578 118.377 95.8836 118.377 96.6484V104.992C118.377 105.757 119.003 106.383 119.768 106.383H140.975C141.739 106.383 142.365 105.757 142.365 104.992V96.6484C142.365 95.8836 141.739 95.2578 140.975 95.2578ZM82.9682 56.0596H75.4414C74.3637 56.0596 73.4945 56.9287 73.4945 58.0064V101.116C73.4945 101.742 73.79 102.315 74.2941 102.68L100.177 121.558C101.046 122.184 102.263 122.01 102.889 121.141L107.356 115.039V115.022C107.982 114.153 107.791 112.936 106.922 112.31L84.8977 96.3877V58.0064C84.915 56.9287 84.0285 56.0596 82.9682 56.0596V56.0596Z" fill="white"></path> <path d="M139.897 117.143H129.85C128.876 117.143 127.955 117.647 127.433 118.481C125.226 121.975 122.653 125.208 119.698 128.163C114.605 133.257 108.677 137.255 102.089 140.036C95.2578 142.921 88.0092 144.382 80.5346 144.382C73.0426 144.382 65.7939 142.921 58.9799 140.036C52.3918 137.255 46.4643 133.257 41.3711 128.163C36.2779 123.07 32.2799 117.143 29.4986 110.555C26.6131 103.741 25.1529 96.492 25.1529 89C25.1529 81.508 26.6131 74.2768 29.4986 67.4453C32.2799 60.8572 36.2779 54.9297 41.3711 49.8365C46.4643 44.7434 52.3918 40.7453 58.9799 37.9641C65.7939 35.0785 73.06 33.6184 80.5346 33.6184C88.0266 33.6184 95.2752 35.0785 102.089 37.9641C108.677 40.7453 114.605 44.7434 119.698 49.8365C122.653 52.7916 125.226 56.0248 127.433 59.5188C127.955 60.3531 128.876 60.8572 129.85 60.8572H139.897C141.096 60.8572 141.861 59.6057 141.322 58.5453C129.989 35.9998 107.009 21.3461 81.3516 21.0506C43.7873 20.5813 12.5852 51.3315 12.5156 88.8609C12.4461 126.46 42.9182 156.967 80.5172 156.967C106.505 156.967 129.867 142.261 141.322 119.455C141.861 118.394 141.079 117.143 139.897 117.143V117.143Z" fill="white"></path> </svg> 